<mxfile host="app.diagrams.net" modified="2022-03-08T03:56:00.758Z" agent="5.0 (Windows)" etag="3GA23UQjebd6QVTo94wg" version="16.6.7" type="github">
  <diagram id="hK6cHyncP6QBp0MwOiCH" name="Page-1">
    <mxGraphModel dx="599" dy="323" grid="1" gridSize="10" guides="1" tooltips="1" connect="1" arrows="1" fold="1" page="1" pageScale="1" pageWidth="850" pageHeight="1100" math="0" shadow="0">
      <root>
        <mxCell id="0" />
        <mxCell id="1" parent="0" />
        <mxCell id="fasCJvcmdjpcavR-v_NH-1" value="" style="html=1;dashed=0;whitespace=wrap;strokeWidth=2;" vertex="1" parent="1">
          <mxGeometry x="190" y="362.5" width="100" height="60" as="geometry" />
        </mxCell>
        <mxCell id="zbHn5pgKD2MKhqcWUCU9-28" value="" style="html=1;dashed=0;whitespace=wrap;strokeWidth=2;" parent="1" vertex="1">
          <mxGeometry x="190" y="642.5" width="100" height="60" as="geometry" />
        </mxCell>
        <mxCell id="zbHn5pgKD2MKhqcWUCU9-27" value="" style="shape=parallelogram;perimeter=parallelogramPerimeter;whiteSpace=wrap;html=1;fixedSize=1;strokeWidth=2;" parent="1" vertex="1">
          <mxGeometry x="180" y="560" width="120" height="60" as="geometry" />
        </mxCell>
        <mxCell id="zbHn5pgKD2MKhqcWUCU9-13" value="" style="shape=parallelogram;perimeter=parallelogramPerimeter;whiteSpace=wrap;html=1;fixedSize=1;strokeWidth=2;" parent="1" vertex="1">
          <mxGeometry x="180" y="730" width="120" height="60" as="geometry" />
        </mxCell>
        <mxCell id="kf-vg7m3FzswI82a5gg6-1" value="" style="strokeWidth=2;html=1;shape=mxgraph.flowchart.terminator;whiteSpace=wrap;" parent="1" vertex="1">
          <mxGeometry x="190" y="280" width="100" height="60" as="geometry" />
        </mxCell>
        <mxCell id="kf-vg7m3FzswI82a5gg6-2" value="&lt;h1&gt;Flowchart for Registration to Borrow Books in Library&lt;br&gt;&lt;/h1&gt;&lt;p&gt;The procedure to new comers who want to borrow books in the library. They need to register new profile first then are allowed to borrow books in the library with terms.&lt;/p&gt;&lt;p&gt;By: Andika Fadila Pratama D4-JTD 1A/04 &lt;br&gt;&lt;/p&gt;&lt;p&gt;Polinema-Computer Programming Practicum&lt;/p&gt;&lt;p&gt;2022/03/02&lt;br&gt;&lt;/p&gt;" style="text;html=1;strokeColor=none;fillColor=#A9C4EB;spacing=5;spacingTop=-20;whiteSpace=wrap;overflow=hidden;rounded=0;" parent="1" vertex="1">
          <mxGeometry x="40" y="40" width="320" height="210" as="geometry" />
        </mxCell>
        <mxCell id="kf-vg7m3FzswI82a5gg6-3" value="Start" style="text;html=1;strokeColor=none;fillColor=none;align=center;verticalAlign=middle;whiteSpace=wrap;rounded=0;" parent="1" vertex="1">
          <mxGeometry x="210" y="295" width="60" height="30" as="geometry" />
        </mxCell>
        <mxCell id="kf-vg7m3FzswI82a5gg6-6" value="Register new profile" style="text;html=1;strokeColor=none;fillColor=none;align=center;verticalAlign=middle;whiteSpace=wrap;rounded=0;" parent="1" vertex="1">
          <mxGeometry x="195" y="657.5" width="90" height="30" as="geometry" />
        </mxCell>
        <mxCell id="kf-vg7m3FzswI82a5gg6-10" value="Borrow books" style="text;html=1;strokeColor=none;fillColor=none;align=center;verticalAlign=middle;whiteSpace=wrap;rounded=0;" parent="1" vertex="1">
          <mxGeometry x="210" y="380" width="60" height="25" as="geometry" />
        </mxCell>
        <mxCell id="kf-vg7m3FzswI82a5gg6-12" value="" style="strokeWidth=2;html=1;shape=mxgraph.flowchart.decision;whiteSpace=wrap;fillColor=none;" parent="1" vertex="1">
          <mxGeometry x="190" y="440" width="100" height="100" as="geometry" />
        </mxCell>
        <mxCell id="kf-vg7m3FzswI82a5gg6-13" value="New member?" style="text;html=1;strokeColor=none;fillColor=none;align=center;verticalAlign=middle;whiteSpace=wrap;rounded=0;" parent="1" vertex="1">
          <mxGeometry x="210" y="475" width="60" height="30" as="geometry" />
        </mxCell>
        <mxCell id="kf-vg7m3FzswI82a5gg6-14" value="" style="endArrow=classic;html=1;rounded=0;exitX=0.5;exitY=1;exitDx=0;exitDy=0;exitPerimeter=0;entryX=0.5;entryY=0;entryDx=0;entryDy=0;" parent="1" source="kf-vg7m3FzswI82a5gg6-12" target="zbHn5pgKD2MKhqcWUCU9-27" edge="1">
          <mxGeometry width="50" height="50" relative="1" as="geometry">
            <mxPoint x="340" y="540" as="sourcePoint" />
            <mxPoint x="180" y="540" as="targetPoint" />
          </mxGeometry>
        </mxCell>
        <mxCell id="kf-vg7m3FzswI82a5gg6-20" value="Register new profile" style="text;html=1;strokeColor=none;fillColor=none;align=center;verticalAlign=middle;whiteSpace=wrap;rounded=0;" parent="1" vertex="1">
          <mxGeometry x="200" y="575" width="80" height="30" as="geometry" />
        </mxCell>
        <mxCell id="kf-vg7m3FzswI82a5gg6-21" value="Yes" style="text;html=1;strokeColor=none;fillColor=none;align=center;verticalAlign=middle;whiteSpace=wrap;rounded=0;" parent="1" vertex="1">
          <mxGeometry x="240" y="540" width="30" height="20" as="geometry" />
        </mxCell>
        <mxCell id="kf-vg7m3FzswI82a5gg6-22" value="" style="endArrow=classic;html=1;rounded=0;exitX=0.5;exitY=1;exitDx=0;exitDy=0;entryX=0.5;entryY=0;entryDx=0;entryDy=0;" parent="1" source="zbHn5pgKD2MKhqcWUCU9-27" target="zbHn5pgKD2MKhqcWUCU9-28" edge="1">
          <mxGeometry width="50" height="50" relative="1" as="geometry">
            <mxPoint x="240" y="630" as="sourcePoint" />
            <mxPoint x="240" y="630" as="targetPoint" />
          </mxGeometry>
        </mxCell>
        <mxCell id="kf-vg7m3FzswI82a5gg6-23" value="" style="endArrow=classic;html=1;rounded=0;entryX=0.5;entryY=0;entryDx=0;entryDy=0;exitX=0.5;exitY=1;exitDx=0;exitDy=0;" parent="1" source="zbHn5pgKD2MKhqcWUCU9-28" target="zbHn5pgKD2MKhqcWUCU9-13" edge="1">
          <mxGeometry width="50" height="50" relative="1" as="geometry">
            <mxPoint x="240" y="720" as="sourcePoint" />
            <mxPoint x="240" y="780" as="targetPoint" />
          </mxGeometry>
        </mxCell>
        <mxCell id="kf-vg7m3FzswI82a5gg6-25" value="Input a book to borrow" style="text;html=1;strokeColor=none;fillColor=none;align=center;verticalAlign=middle;whiteSpace=wrap;rounded=0;" parent="1" vertex="1">
          <mxGeometry x="200" y="745" width="80" height="30" as="geometry" />
        </mxCell>
        <mxCell id="kf-vg7m3FzswI82a5gg6-26" value="" style="endArrow=classic;html=1;rounded=0;entryX=0.5;entryY=0;entryDx=0;entryDy=0;exitX=0.5;exitY=1;exitDx=0;exitDy=0;" parent="1" source="zbHn5pgKD2MKhqcWUCU9-13" target="zbHn5pgKD2MKhqcWUCU9-10" edge="1">
          <mxGeometry width="50" height="50" relative="1" as="geometry">
            <mxPoint x="240" y="860" as="sourcePoint" />
            <mxPoint x="240" y="870" as="targetPoint" />
          </mxGeometry>
        </mxCell>
        <mxCell id="zbHn5pgKD2MKhqcWUCU9-5" value="" style="endArrow=classic;html=1;rounded=0;exitX=1;exitY=0.5;exitDx=0;exitDy=0;exitPerimeter=0;entryX=1;entryY=0.5;entryDx=0;entryDy=0;" parent="1" source="kf-vg7m3FzswI82a5gg6-12" target="zbHn5pgKD2MKhqcWUCU9-13" edge="1">
          <mxGeometry width="50" height="50" relative="1" as="geometry">
            <mxPoint x="390" y="600" as="sourcePoint" />
            <mxPoint x="360" y="690" as="targetPoint" />
            <Array as="points">
              <mxPoint x="330" y="490" />
              <mxPoint x="330" y="720" />
            </Array>
          </mxGeometry>
        </mxCell>
        <mxCell id="zbHn5pgKD2MKhqcWUCU9-6" value="" style="strokeWidth=2;html=1;shape=mxgraph.flowchart.decision;whiteSpace=wrap;" parent="1" vertex="1">
          <mxGeometry x="190" y="890" width="100" height="100" as="geometry" />
        </mxCell>
        <mxCell id="zbHn5pgKD2MKhqcWUCU9-7" value="One more book to borrow?" style="text;html=1;strokeColor=none;fillColor=none;align=center;verticalAlign=middle;whiteSpace=wrap;rounded=0;" parent="1" vertex="1">
          <mxGeometry x="200" y="925" width="80" height="30" as="geometry" />
        </mxCell>
        <mxCell id="zbHn5pgKD2MKhqcWUCU9-10" value="" style="html=1;dashed=0;whitespace=wrap;strokeWidth=2;" parent="1" vertex="1">
          <mxGeometry x="190" y="810" width="100" height="60" as="geometry" />
        </mxCell>
        <mxCell id="zbHn5pgKD2MKhqcWUCU9-11" value="Record book to the Librarian" style="text;html=1;strokeColor=none;fillColor=none;align=center;verticalAlign=middle;whiteSpace=wrap;rounded=0;" parent="1" vertex="1">
          <mxGeometry x="190" y="825" width="100" height="30" as="geometry" />
        </mxCell>
        <mxCell id="zbHn5pgKD2MKhqcWUCU9-14" value="" style="endArrow=classic;html=1;rounded=0;exitX=0.5;exitY=1;exitDx=0;exitDy=0;entryX=0.5;entryY=0;entryDx=0;entryDy=0;entryPerimeter=0;" parent="1" source="zbHn5pgKD2MKhqcWUCU9-10" target="zbHn5pgKD2MKhqcWUCU9-6" edge="1">
          <mxGeometry width="50" height="50" relative="1" as="geometry">
            <mxPoint x="340" y="870" as="sourcePoint" />
            <mxPoint x="240" y="960" as="targetPoint" />
          </mxGeometry>
        </mxCell>
        <mxCell id="zbHn5pgKD2MKhqcWUCU9-15" value="" style="endArrow=classic;html=1;rounded=0;exitX=1;exitY=0.5;exitDx=0;exitDy=0;exitPerimeter=0;entryX=1;entryY=0.5;entryDx=0;entryDy=0;" parent="1" source="zbHn5pgKD2MKhqcWUCU9-6" target="zbHn5pgKD2MKhqcWUCU9-13" edge="1">
          <mxGeometry width="50" height="50" relative="1" as="geometry">
            <mxPoint x="350" y="890" as="sourcePoint" />
            <mxPoint x="320" y="940" as="targetPoint" />
            <Array as="points">
              <mxPoint x="340" y="940" />
              <mxPoint x="340" y="760" />
            </Array>
          </mxGeometry>
        </mxCell>
        <mxCell id="zbHn5pgKD2MKhqcWUCU9-16" value="Yes" style="text;html=1;strokeColor=none;fillColor=none;align=center;verticalAlign=middle;whiteSpace=wrap;rounded=0;" parent="1" vertex="1">
          <mxGeometry x="290" y="910" width="50" height="30" as="geometry" />
        </mxCell>
        <mxCell id="zbHn5pgKD2MKhqcWUCU9-18" value="" style="endArrow=classic;html=1;rounded=0;exitX=0.5;exitY=1;exitDx=0;exitDy=0;exitPerimeter=0;" parent="1" source="zbHn5pgKD2MKhqcWUCU9-6" target="zbHn5pgKD2MKhqcWUCU9-19" edge="1">
          <mxGeometry width="50" height="50" relative="1" as="geometry">
            <mxPoint x="350" y="1040" as="sourcePoint" />
            <mxPoint x="240" y="1010" as="targetPoint" />
          </mxGeometry>
        </mxCell>
        <mxCell id="zbHn5pgKD2MKhqcWUCU9-19" value="" style="ellipse;whiteSpace=wrap;html=1;aspect=fixed;strokeWidth=2;" parent="1" vertex="1">
          <mxGeometry x="220" y="1020" width="40" height="40" as="geometry" />
        </mxCell>
        <mxCell id="zbHn5pgKD2MKhqcWUCU9-20" value="No" style="text;html=1;strokeColor=none;fillColor=none;align=center;verticalAlign=middle;whiteSpace=wrap;rounded=0;" parent="1" vertex="1">
          <mxGeometry x="240" y="990" width="40" height="30" as="geometry" />
        </mxCell>
        <mxCell id="zbHn5pgKD2MKhqcWUCU9-21" value="" style="ellipse;whiteSpace=wrap;html=1;aspect=fixed;strokeWidth=2;" parent="1" vertex="1">
          <mxGeometry x="540" y="300" width="40" height="40" as="geometry" />
        </mxCell>
        <mxCell id="zbHn5pgKD2MKhqcWUCU9-22" value="" style="endArrow=classic;html=1;rounded=0;exitX=0.5;exitY=1;exitDx=0;exitDy=0;entryX=0.5;entryY=0;entryDx=0;entryDy=0;" parent="1" source="zbHn5pgKD2MKhqcWUCU9-21" target="zbHn5pgKD2MKhqcWUCU9-30" edge="1">
          <mxGeometry width="50" height="50" relative="1" as="geometry">
            <mxPoint x="440" y="440" as="sourcePoint" />
            <mxPoint x="560" y="360" as="targetPoint" />
          </mxGeometry>
        </mxCell>
        <mxCell id="zbHn5pgKD2MKhqcWUCU9-23" value="No" style="text;html=1;strokeColor=none;fillColor=none;align=center;verticalAlign=middle;whiteSpace=wrap;rounded=0;" parent="1" vertex="1">
          <mxGeometry x="290" y="490" width="40" height="20" as="geometry" />
        </mxCell>
        <mxCell id="zbHn5pgKD2MKhqcWUCU9-30" value="" style="shape=parallelogram;perimeter=parallelogramPerimeter;whiteSpace=wrap;html=1;fixedSize=1;strokeWidth=2;" parent="1" vertex="1">
          <mxGeometry x="500" y="360" width="120" height="60" as="geometry" />
        </mxCell>
        <mxCell id="zbHn5pgKD2MKhqcWUCU9-31" value="Output receive card member with terms" style="text;html=1;strokeColor=none;fillColor=none;align=center;verticalAlign=middle;whiteSpace=wrap;rounded=0;" parent="1" vertex="1">
          <mxGeometry x="520" y="375" width="80" height="30" as="geometry" />
        </mxCell>
        <mxCell id="zbHn5pgKD2MKhqcWUCU9-32" value="" style="endArrow=classic;html=1;rounded=0;exitX=0.5;exitY=1;exitDx=0;exitDy=0;entryX=0.5;entryY=0;entryDx=0;entryDy=0;entryPerimeter=0;" parent="1" source="zbHn5pgKD2MKhqcWUCU9-30" target="zbHn5pgKD2MKhqcWUCU9-33" edge="1">
          <mxGeometry width="50" height="50" relative="1" as="geometry">
            <mxPoint x="520" y="550" as="sourcePoint" />
            <mxPoint x="580" y="430" as="targetPoint" />
          </mxGeometry>
        </mxCell>
        <mxCell id="zbHn5pgKD2MKhqcWUCU9-33" value="" style="strokeWidth=2;html=1;shape=mxgraph.flowchart.terminator;whiteSpace=wrap;" parent="1" vertex="1">
          <mxGeometry x="510" y="445" width="100" height="60" as="geometry" />
        </mxCell>
        <mxCell id="zbHn5pgKD2MKhqcWUCU9-34" value="Happy reading" style="text;html=1;strokeColor=none;fillColor=none;align=center;verticalAlign=middle;whiteSpace=wrap;rounded=0;" parent="1" vertex="1">
          <mxGeometry x="530" y="460" width="60" height="30" as="geometry" />
        </mxCell>
        <mxCell id="fasCJvcmdjpcavR-v_NH-4" value="" style="endArrow=classic;html=1;rounded=0;exitX=0.5;exitY=1;exitDx=0;exitDy=0;entryX=0.5;entryY=0;entryDx=0;entryDy=0;entryPerimeter=0;" edge="1" parent="1" source="fasCJvcmdjpcavR-v_NH-1" target="kf-vg7m3FzswI82a5gg6-12">
          <mxGeometry width="50" height="50" relative="1" as="geometry">
            <mxPoint x="290" y="430" as="sourcePoint" />
            <mxPoint x="340" y="380" as="targetPoint" />
          </mxGeometry>
        </mxCell>
        <mxCell id="fasCJvcmdjpcavR-v_NH-5" value="" style="endArrow=classic;html=1;rounded=0;exitX=0.5;exitY=1;exitDx=0;exitDy=0;exitPerimeter=0;entryX=0.5;entryY=0;entryDx=0;entryDy=0;" edge="1" parent="1" source="kf-vg7m3FzswI82a5gg6-1" target="fasCJvcmdjpcavR-v_NH-1">
          <mxGeometry width="50" height="50" relative="1" as="geometry">
            <mxPoint x="290" y="430" as="sourcePoint" />
            <mxPoint x="340" y="380" as="targetPoint" />
          </mxGeometry>
        </mxCell>
      </root>
    </mxGraphModel>
  </diagram>
</mxfile>
